<svg width="356" height="352" viewBox="0 0 356 352" fill="none" xmlns="http://www.w3.org/2000/svg">
<g clip-path="url(#clip0_5440_5443)">
<path d="M173.392 183.743L113.94 214L168.815 249.267L228.267 219.009L173.392 183.743Z" fill="#00563B"/>
<path d="M177.156 115.634L120.101 145.37L113.94 214L173.392 183.743L177.156 115.634Z" fill="#063526"/>
<path d="M64.6422 109.728L58.1973 241.693L113.939 214L120.101 145.37L177.156 115.634L123.157 80.9303L64.6422 109.728Z" fill="#047854"/>
<path d="M58.1973 241.693L113.939 214.001L168.814 249.267L228.267 219.009L282.85 254.088L168.239 312.414L58.1973 241.693Z" fill="#084733"/>
<path fill-rule="evenodd" clip-rule="evenodd" d="M207.55 102.996L207.545 68.3477L290.734 121.81L282.85 254.088L228.267 219.009L232.031 150.9L177.156 115.634L207.55 102.996Z" fill="#0A553D"/>
<path d="M207.55 102.996L177.157 115.634L178.653 84.4249L207.546 68.3477L207.55 102.996Z" fill="#053022"/>
<path d="M150.157 98.2822L123.157 80.9304L150.62 66.4092L178.653 84.4253L150.157 98.2822Z" fill="#074733"/>
<path d="M180.546 50.9963L178.653 84.4253L150.62 66.4093L153.546 33.6445L180.546 50.9963Z" fill="#0A553D"/>
<path d="M123.626 49.0606L153.546 33.6445L150.62 66.4092L123.157 80.9304L123.626 49.0606Z" fill="#047854"/>
<path d="M197.652 66.8509L186.867 59.9197L197.837 54.1191L209.035 61.3157L197.652 66.8509Z" fill="#074733"/>
<path d="M209.791 47.9615L209.035 61.3149L197.837 54.1183L199.006 41.0303L209.791 47.9615Z" fill="#0A553D"/>
<path d="M187.054 47.1886L199.006 41.0305L197.837 54.1186L186.867 59.9191L187.054 47.1886Z" fill="#047854"/>
</g>
<defs>
<clipPath id="clip0_5440_5443">
<rect width="262" height="250" fill="white" transform="translate(135.161) rotate(32.7275)"/>
</clipPath>
</defs>
</svg>
