<svg width="125" height="119" viewBox="0 0 125 119" fill="none" xmlns="http://www.w3.org/2000/svg">
<g clip-path="url(#clip0_5094_720)">
<path d="M62.6535 63.7986L46.6182 91.2406H77.6971L93.7324 63.7986H62.6535Z" fill="#00563B"/>
<path d="M46.6185 35.53L31.4097 62.1455L46.6185 91.2406L62.6539 63.7986L46.6185 35.53Z" fill="#063526"/>
<path d="M0 62.1455L31.4095 116.699L46.6183 91.2406L31.4095 62.1455L46.6183 35.53H16.0354L0 62.1455Z" fill="#047854"/>
<path d="M31.4097 116.699L46.6185 91.2406H77.6974L93.7328 63.7986H124.646L93.7328 116.699H31.4097Z" fill="#084733"/>
<path fill-rule="evenodd" clip-rule="evenodd" d="M55.5451 22.6356L46.6182 8.74927H93.7324L124.646 63.7986H93.7324L77.6971 35.53H46.6182L55.5451 22.6356Z" fill="#0A553D"/>
<path d="M55.5452 22.6356L46.6183 35.53L39.1792 22.6356L46.6183 8.74927L55.5452 22.6356Z" fill="#053022"/>
<path d="M31.3266 35.53H16.0352L23.3022 22.6356H39.179L31.3266 35.53Z" fill="#074733"/>
<path d="M31.3266 8.74927L39.179 22.6356H23.3022L16.0352 8.74927H31.3266Z" fill="#0A553D"/>
<path d="M8.01367 22.6356L16.0353 8.74927L23.3023 22.6356L16.0353 35.53L8.01367 22.6356Z" fill="#047854"/>
<path d="M42.2669 10.6978H36.1587L39.0615 5.54707H45.4036L42.2669 10.6978Z" fill="#074733"/>
<path d="M42.2669 0L45.4036 5.54694H39.0615L36.1587 0H42.2669Z" fill="#0A553D"/>
<path d="M32.9546 5.54694L36.1589 0L39.0617 5.54694L36.1589 10.6977L32.9546 5.54694Z" fill="#047854"/>
</g>
<defs>
<clipPath id="clip0_5094_720">
<rect width="124.599" height="118.804" fill="white"/>
</clipPath>
</defs>
</svg>
