<svg width="185" height="173" viewBox="0 0 185 173" fill="none" xmlns="http://www.w3.org/2000/svg">
<g clip-path="url(#clip0_5054_1029)">
<path d="M92.6894 94.3832L68.9668 134.981H114.945L138.667 94.3832H92.6894Z" fill="#00563B"/>
<path d="M68.9669 52.5629L46.467 91.9376L68.9669 134.981L92.6895 94.3832L68.9669 52.5629Z" fill="#063526"/>
<path d="M0 91.9376L46.467 172.643L68.9668 134.981L46.467 91.9376L68.9668 52.5629H23.7226L0 91.9376Z" fill="#047854"/>
<path d="M46.467 172.643L68.9669 134.981H114.945L138.667 94.3832H184.401L138.667 172.643H46.467Z" fill="#084733"/>
<path fill-rule="evenodd" clip-rule="evenodd" d="M82.1732 33.4869L68.9668 12.9436H138.667L184.401 94.3832H138.667L114.945 52.5628H68.9668L82.1732 33.4869Z" fill="#0A553D"/>
<path d="M82.1732 33.4869L68.9668 52.5628L57.9614 33.4869L68.9668 12.9436L82.1732 33.4869Z" fill="#053022"/>
<path d="M46.3448 52.5629H23.7227L34.4734 33.4869H57.9615L46.3448 52.5629Z" fill="#074733"/>
<path d="M46.3448 12.9436L57.9615 33.4869H34.4734L23.7227 12.9436H46.3448Z" fill="#0A553D"/>
<path d="M11.8555 33.4869L23.7226 12.9436L34.4734 33.4869L23.7226 52.5628L11.8555 33.4869Z" fill="#047854"/>
<path d="M62.5299 15.8262H53.4934L57.7878 8.2063H67.1703L62.5299 15.8262Z" fill="#074733"/>
<path d="M62.5299 0L67.1703 8.2061H57.7878L53.4934 0H62.5299Z" fill="#0A553D"/>
<path d="M48.7529 8.2061L53.4933 0L57.7877 8.2061L53.4933 15.826L48.7529 8.2061Z" fill="#047854"/>
</g>
<defs>
<clipPath id="clip0_5054_1029">
<rect width="184.401" height="172.643" fill="white"/>
</clipPath>
</defs>
</svg>
