<svg width="32" height="32" viewBox="0 0 43 41" fill="none" xmlns="http://www.w3.org/2000/svg">
<g clip-path="url(#clip0_5094_579)">
<path d="M21.6223 22.0172L16.0884 31.4876H26.8139L32.3478 22.0172H21.6223Z" fill="#00563B"/>
<path d="M16.0885 12.2616L10.8398 21.4467L16.0885 31.4876L21.6224 22.0172L16.0885 12.2616Z" fill="#063526"/>
<path d="M0 21.4467L10.8396 40.2734L16.0883 31.4876L10.8396 21.4467L16.0883 12.2616H5.5339L0 21.4467Z" fill="#047854"/>
<path d="M10.8398 40.2734L16.0885 31.4876H26.814L32.3479 22.0172H43.0164L32.3479 40.2734H10.8398Z" fill="#084733"/>
<path fill-rule="evenodd" clip-rule="evenodd" d="M19.1691 7.81165L16.0884 3.01941H32.3478L43.0162 22.0172H32.3478L26.8139 12.2616H16.0884L19.1691 7.81165Z" fill="#0A553D"/>
<path d="M19.169 7.81165L16.0883 12.2616L13.521 7.81165L16.0883 3.01941L19.169 7.81165Z" fill="#053022"/>
<path d="M10.8114 12.2616H5.53418L8.04206 7.81165H13.5213L10.8114 12.2616Z" fill="#074733"/>
<path d="M10.8114 3.01941L13.5213 7.81165H8.04206L5.53418 3.01941H10.8114Z" fill="#0A553D"/>
<path d="M2.76562 7.81165L5.53394 3.01941L8.04182 7.81165L5.53394 12.2616L2.76562 7.81165Z" fill="#047854"/>
<path d="M14.587 3.69185H12.479L13.4808 1.91431H15.6695L14.587 3.69185Z" fill="#074733"/>
<path d="M14.587 0L15.6695 1.91428H13.4808L12.479 0H14.587Z" fill="#0A553D"/>
<path d="M11.373 1.91428L12.4789 0L13.4806 1.91428L12.4789 3.69183L11.373 1.91428Z" fill="#047854"/>
</g>
<defs>
<clipPath id="clip0_5094_579">
<rect width="43" height="41" fill="white"/>
</clipPath>
</defs>
</svg>
